<svg width="512" height="512" viewBox="0 0 512 512" fill="none" xmlns="http://www.w3.org/2000/svg">
<rect x="46" y="46" width="420" height="420" rx="69" fill="#1E1E1E"/>
<rect x="61" y="61" width="390" height="390" rx="54" stroke="url(#paint0_linear_1_2)" stroke-width="30"/>
<rect x="36" y="36" width="440" height="440" rx="79" stroke="url(#paint1_linear_1_2)" stroke-width="20"/>
<rect x="46" y="46" width="420" height="420" rx="69" stroke="#303030" stroke-width="20"/>
<path d="M169.036 135H286V251.964L271.964 266L169.036 251.964L155 149.036L169.036 135Z" fill="#536DC9"/>
<rect x="155" y="149.036" width="116.964" height="116.964" fill="#708FFE"/>
<path d="M135.179 298H220V382.821L209.821 393L135.179 382.821L125 308.179L135.179 298Z" fill="#31BB71"/>
<rect x="125" y="308.179" width="84.8214" height="84.8214" fill="#58FFA5"/>
<path d="M320 224H395V299L386 308L320 299L311 233L320 224Z" fill="#CB5B43"/>
<rect x="311" y="233" width="75" height="75" fill="#FF7658"/>
<defs>
<linearGradient id="paint0_linear_1_2" x1="466" y1="46" x2="46" y2="466" gradientUnits="userSpaceOnUse">
<stop stop-color="#FE1313"/>
<stop offset="1" stop-color="#41BBFF"/>
</linearGradient>
<linearGradient id="paint1_linear_1_2" x1="63" y1="493.5" x2="214" y2="-45" gradientUnits="userSpaceOnUse">
<stop offset="0.83" stop-color="#353535"/>
<stop offset="1" stop-color="#9B9B9B"/>
</linearGradient>
</defs>
</svg>
